<svg xmlns="http://www.w3.org/2000/svg" width="15" height="13" viewBox="0 0 15 13">
  <metadata><?xpacket begin="﻿" id="W5M0MpCehiHzreSzNTczkc9d"?>
<x:xmpmeta xmlns:x="adobe:ns:meta/" x:xmptk="Adobe XMP Core 5.6-c138 79.159824, 2016/09/14-01:09:01        ">
   <rdf:RDF xmlns:rdf="http://www.w3.org/1999/02/22-rdf-syntax-ns#">
      <rdf:Description rdf:about=""/>
   </rdf:RDF>
</x:xmpmeta>
                                                                                                    
                                                                                                    
                                                                                                    
                                                                                                    
                                                                                                    
                                                                                                    
                                                                                                    
                                                                                                    
                                                                                                    
                                                                                                    
                                                                                                    
                                                                                                    
                                                                                                    
                                                                                                    
                                                                                                    
                                                                                                    
                                                                                                    
                                                                                                    
                                                                                                    
                                                                                                    
                           
<?xpacket end="w"?></metadata>
<defs>
    <style>
      .cls-1 {
        fill: #c6c6c6;
        fill-rule: evenodd;
      }
    </style>
  </defs>
  <path id="komment" class="cls-1" d="M1057.49,631h-13.98a0.506,0.506,0,0,0-.51.5v9.4a0.506,0.506,0,0,0,.51.5h11.15l2.47,2.452a0.523,0.523,0,0,0,.36.148,0.567,0.567,0,0,0,.2-0.038,0.5,0.5,0,0,0,.31-0.462v-12A0.506,0.506,0,0,0,1057.49,631Zm-0.51,11.287-1.75-1.74a0.531,0.531,0,0,0-.36-0.147h-10.85V632h12.96v10.287h0Zm-6.48-7.7a1.6,1.6,0,1,0,1.63,1.6A1.616,1.616,0,0,0,1050.5,634.583Zm0,2.2a0.6,0.6,0,1,1,.61-0.6A0.6,0.6,0,0,1,1050.5,636.783Zm-3.89-2.2a1.6,1.6,0,1,0,1.62,1.6A1.616,1.616,0,0,0,1046.61,634.583Zm0,2.2a0.6,0.6,0,1,1,0-1.2A0.6,0.6,0,1,1,1046.61,636.783Zm7.78-2.2a1.6,1.6,0,1,0,1.63,1.6A1.614,1.614,0,0,0,1054.39,634.583Zm0,2.2a0.6,0.6,0,1,1,0-1.2A0.6,0.6,0,1,1,1054.39,636.783Z" transform="translate(-1043 -631)"/>
</svg>
