<svg xmlns="http://www.w3.org/2000/svg" width="11.03" height="10" viewBox="0 0 11.03 10">
  <metadata><?xpacket begin="﻿" id="W5M0MpCehiHzreSzNTczkc9d"?>
<x:xmpmeta xmlns:x="adobe:ns:meta/" x:xmptk="Adobe XMP Core 5.6-c138 79.159824, 2016/09/14-01:09:01        ">
   <rdf:RDF xmlns:rdf="http://www.w3.org/1999/02/22-rdf-syntax-ns#">
      <rdf:Description rdf:about=""/>
   </rdf:RDF>
</x:xmpmeta>
                                                                                                    
                                                                                                    
                                                                                                    
                                                                                                    
                                                                                                    
                                                                                                    
                                                                                                    
                                                                                                    
                                                                                                    
                                                                                                    
                                                                                                    
                                                                                                    
                                                                                                    
                                                                                                    
                                                                                                    
                                                                                                    
                                                                                                    
                                                                                                    
                                                                                                    
                                                                                                    
                           
<?xpacket end="w"?></metadata>
<defs>
    <style>
      .cls-1 {
        fill: #c87a9c;
        fill-rule: evenodd;
      }
    </style>
  </defs>
  <path id="heart" class="cls-1" d="M1129.11,1953.93a2.985,2.985,0,0,0-4.33,0l-0.28.29-0.28-.29a2.985,2.985,0,0,0-4.33,0,3.27,3.27,0,0,0,0,4.49l4.27,4.44a0.5,0.5,0,0,0,.25.13,0.277,0.277,0,0,0,.09.01,0.513,0.513,0,0,0,.34-0.14l4.27-4.44A3.27,3.27,0,0,0,1129.11,1953.93Zm-0.67,3.8-3.94,4.09-3.94-4.09a2.273,2.273,0,0,1,0-3.11,2.066,2.066,0,0,1,2.99,0l0.62,0.65a0.471,0.471,0,0,0,.66,0l0.62-.65a2.066,2.066,0,0,1,2.99,0A2.273,2.273,0,0,1,1128.44,1957.73Z" transform="translate(-1119 -1953)"/>
</svg>
