<svg xmlns="http://www.w3.org/2000/svg" width="17.97" height="12" viewBox="0 0 17.97 12">
  <metadata><?xpacket begin="﻿" id="W5M0MpCehiHzreSzNTczkc9d"?>
<x:xmpmeta xmlns:x="adobe:ns:meta/" x:xmptk="Adobe XMP Core 5.6-c138 79.159824, 2016/09/14-01:09:01        ">
   <rdf:RDF xmlns:rdf="http://www.w3.org/1999/02/22-rdf-syntax-ns#">
      <rdf:Description rdf:about=""/>
   </rdf:RDF>
</x:xmpmeta>
                                                                                                    
                                                                                                    
                                                                                                    
                                                                                                    
                                                                                                    
                                                                                                    
                                                                                                    
                                                                                                    
                                                                                                    
                                                                                                    
                                                                                                    
                                                                                                    
                                                                                                    
                                                                                                    
                                                                                                    
                                                                                                    
                                                                                                    
                                                                                                    
                                                                                                    
                                                                                                    
                           
<?xpacket end="w"?></metadata>
<defs>
    <style>
      .cls-1 {
        fill: #c6c6c6;
        fill-rule: evenodd;
      }
    </style>
  </defs>
  <path id="view" class="cls-1" d="M1105.88,636.634c-0.16-.231-3.99-5.635-8.88-5.635s-8.73,5.4-8.89,5.634a0.653,0.653,0,0,0,0,.733c0.16,0.23,4,5.634,8.89,5.634s8.72-5.4,8.88-5.634A0.618,0.618,0,0,0,1105.88,636.634Zm-8.88,5.125c-3.61,0-6.73-3.587-7.65-4.76,0.92-1.173,4.04-4.758,7.65-4.758s6.73,3.586,7.65,4.759C1103.73,638.174,1100.61,641.759,1097,641.759Zm0-8.483a3.728,3.728,0,1,0,3.56,3.724A3.65,3.65,0,0,0,1097,633.276Zm0,6.206a2.485,2.485,0,1,1,2.37-2.482A2.428,2.428,0,0,1,1097,639.482Z" transform="translate(-1088.03 -631)"/>
</svg>
